<?xml version="1.0" encoding="iso-8859-1"?>
<!-- Generator: Adobe Illustrator 19.0.0, SVG Export Plug-In . SVG Version: 6.00 Build 0)  -->
<svg version="1.1" id="Capa_1" xmlns="http://www.w3.org/2000/svg" xmlns:xlink="http://www.w3.org/1999/xlink" x="0px" y="0px"
	 viewBox="0 0 456.002 456.002" style="enable-background:new 0 0 456.002 456.002;" xml:space="preserve">
<g>
	<g>
		<path d="M446.2,75.001c-0.1,0-0.1,0-0.1,0H340.9c-5.4,0-9.9,4.3-9.9,9.8v0.1v15.1h-24v-74.6c0-5.5-4.5-10.4-10.1-10.4H159.1
			c-5.5,0-10.1,4.9-10.1,10.4v74.6h-24v-15.1c0-5.4-4.3-9.9-9.7-9.9h-0.1H9.9c-5.4,0-9.9,4.4-9.9,9.8v0.1v50c0,5.5,4.4,10,9.9,10.1
			h105.2c5.5,0,9.9-4.6,9.9-10.1v-14.9h24v74.4c0,5.5,4.5,9.6,10.1,9.6H180v88.6c0,5.6,4.5,10.2,10.1,10.4H201v127.6
			c0,5.5,4.3,10.4,9.8,10.4h34.4c5.5,0,9.8-4.9,9.8-10.4v-127.6h10.9c5.6-0.2,10.1-4.7,10.1-10.4v-88.6h20.9
			c5.5,0,10.1-4.1,10.1-9.6v-74.4h24v14.9c-0.1,5.5,4.4,10,9.9,10.1h105.2c5.5,0,10-4.6,9.9-10.1v-50
			C456,79.501,451.6,75.001,446.2,75.001z M105,125.001H20v-30h85V125.001z M235,421.001h-14v-118h14V421.001z M256,283.001h-56v-79
			h56V283.001z M287,184.001H169v-149h118V184.001z M436,125.001h-85v-30h85V125.001z"/>
	</g>
</g>
<g>
	<g>
		<path d="M245.2,62.001h-34.4c-5.5,0-10,4.5-10,10s4.5,10,10,10h34.4c5.5,0,10-4.5,10-10S250.7,62.001,245.2,62.001z"/>
	</g>
</g>
<g>
	<g>
		<path d="M245.2,124.001h-34.4c-5.5,0-10,4.5-10,10s4.5,10,10,10h34.4c5.5,0,10-4.5,10-10S250.7,124.001,245.2,124.001z"/>
	</g>
</g>
<g>
	<g>
		<path d="M245.2,93.001h-34.4c-5.5,0-10,4.5-10,10s4.5,10,10,10h34.4c5.5,0,10-4.5,10-10S250.7,93.001,245.2,93.001z"/>
	</g>
</g>
<g>
	<g>
		<path d="M355,358.001c-3.9-3.9-10.3-4-14.3,0l-58.6,58.6c-3.9,3.9-3.9,10.3,0.1,14.1c3.9,3.9,10.2,3.9,14.1,0l58.6-58.6
			C358.8,368.201,358.9,361.901,355,358.001z"/>
	</g>
</g>
<g>
	<g>
		<path d="M173.9,416.701l-58.6-58.7c-3.9-3.9-10.3-3.9-14.1,0.1c-3.9,3.9-3.9,10.2,0,14.1l58.6,58.6c3.9,3.9,10.2,3.9,14.1,0
			C177.8,426.901,177.8,420.601,173.9,416.701z"/>
	</g>
</g>
<g>
</g>
<g>
</g>
<g>
</g>
<g>
</g>
<g>
</g>
<g>
</g>
<g>
</g>
<g>
</g>
<g>
</g>
<g>
</g>
<g>
</g>
<g>
</g>
<g>
</g>
<g>
</g>
<g>
</g>
</svg>
